# xmcd
#
# Track frame offsets: 
#        150
#        1612
#        25004
#        50512
#        76403
#        98776
#        114642
#        116786
#        151021
#        203894
#        207132
#        244557
#
# Disc length: 3660 seconds
#
# Revision: 2
# Processed by: cddbd v1.4PL0 Copyright (c) Steve Scherf et al.
# Submitted via: ExactAudioCopy v0.90b2
#
DISCID=890e4a0c
DTITLE=Les Tetes Brulees - Bikutsi Fever
DYEAR=2000
DGENRE=Bikutsi
TTITLE0=A Cappella No1
TTITLE1=Zanzi Collection
TTITLE2=Ca Fait Mal
TTITLE3=Bikutsi funk
TTITLE4=Miyonne
TTITLE5=Be Happy
TTITLE6=A Cappella No2
TTITLE7=Coco
TTITLE8=Essingan
TTITLE9=A Cappella No3
TTITLE10=Abanda
TTITLE11=Nouvelle Generation
EXTD=
EXTT0=
EXTT1=
EXTT2=
EXTT3=
EXTT4=
EXTT5=
EXTT6=
EXTT7=
EXTT8=
EXTT9=
EXTT10=
EXTT11=
PLAYORDER=
